<?xml version="1.0" encoding="UTF-8"?>
<svg xmlns="http://www.w3.org/2000/svg" xmlns:xlink="http://www.w3.org/1999/xlink" width="24px" height="24px" viewBox="0 0 24 24" version="1.1">
<g id="surface1">
<path style=" stroke:none;fill-rule:nonzero;fill:rgb(100%,88.235294%,0%);fill-opacity:1;" d="M 22.398438 12.679688 C 22.398438 9.71875 21 7.398438 18.039062 7.398438 L 17.199219 7.398438 C 15.601562 7.398438 14.441406 8.160156 13.601562 9.398438 C 13.320312 9.679688 13.199219 9.800781 13.199219 9.800781 L 13.199219 8.199219 C 13.199219 8.039062 12.960938 7.800781 12.800781 7.800781 L 8.800781 7.800781 C 8.640625 7.800781 8.398438 7.960938 8.398438 8.160156 L 8.398438 23.078125 C 8.398438 23.238281 8.640625 23.398438 8.800781 23.398438 L 13.199219 23.398438 C 13.359375 23.398438 13.601562 23.238281 13.601562 23.078125 L 13.601562 14.441406 C 13.601562 12.960938 14.71875 11.71875 16.199219 11.679688 C 16.960938 11.679688 17.640625 11.960938 18.160156 12.480469 C 18.640625 12.960938 18.839844 13.640625 18.839844 14.398438 L 18.839844 23 C 18.839844 23.160156 19.078125 23.398438 19.238281 23.398438 L 22.039062 23.398438 C 22.199219 23.398438 22.441406 23.160156 22.441406 23 L 22.441406 12.679688 Z M 22.398438 12.679688 "/>
<path style=" stroke:none;fill-rule:nonzero;fill:rgb(100%,65.882353%,0%);fill-opacity:1;" d="M 18.441406 7.398438 L 18.039062 7.398438 C 21 7.398438 22.398438 9.71875 22.398438 12.679688 L 22.398438 23 C 22.398438 23.160156 22.160156 23.398438 22 23.398438 L 23.199219 23.398438 C 23.359375 23.398438 23.601562 23.160156 23.601562 23 L 23.601562 12.679688 C 23.601562 9.71875 21.398438 7.398438 18.441406 7.398438 "/>
<path style=" stroke:none;fill-rule:nonzero;fill:rgb(100%,88.235294%,0%);fill-opacity:1;" d="M 5 23.398438 L 2.601562 23.398438 C 2.28125 23.398438 2 23.039062 2 22.601562 L 2 8.601562 C 2 8.160156 2.238281 7.800781 2.558594 7.800781 L 5 7.800781 C 5.320312 7.800781 5.601562 8.160156 5.601562 8.601562 L 5.601562 22.640625 C 5.601562 23.039062 5.320312 23.398438 5 23.398438 "/>
<path style=" stroke:none;fill-rule:nonzero;fill:rgb(100%,100%,100%);fill-opacity:1;" d="M 2 22.601562 L 2 8.601562 C 2 8.160156 2.238281 7.800781 2.558594 7.800781 L 4.800781 7.800781 L 1.558594 7.800781 C 1.121094 7.800781 0.800781 8.160156 0.800781 8.601562 L 0.800781 22.601562 C 0.800781 23.039062 1.160156 23.398438 1.601562 23.398438 L 2.558594 23.398438 C 2.28125 23.359375 2 23 2 22.601562 "/>
<path style=" stroke:none;fill-rule:nonzero;fill:rgb(100%,88.235294%,0%);fill-opacity:1;" d="M 3.800781 0.601562 C 5 0.601562 6 1.878906 6 3.398438 C 6 5 4.960938 6.238281 3.800781 6.199219 C 2.640625 6.238281 1.601562 5 1.601562 3.398438 C 1.601562 1.839844 2.601562 0.601562 3.800781 0.601562 "/>
<path style=" stroke:none;fill-rule:nonzero;fill:rgb(100%,100%,100%);fill-opacity:1;" d="M 1.601562 3.398438 C 1.601562 1.960938 2.441406 0.800781 3.558594 0.601562 C 3.441406 0.601562 3.320312 0.601562 3.238281 0.601562 C 1.679688 0.601562 0.398438 1.839844 0.398438 3.398438 C 0.398438 5 1.71875 6.238281 3.199219 6.199219 C 3.320312 6.199219 3.441406 6.199219 3.519531 6.199219 C 2.480469 6.039062 1.601562 4.878906 1.601562 3.398438 "/>
<path style=" stroke:none;fill-rule:nonzero;fill:rgb(0%,0%,0%);fill-opacity:1;" d="M 3.28125 6.601562 C 3.238281 6.601562 3.199219 6.601562 3.199219 6.601562 C 2.398438 6.640625 1.558594 6.28125 0.960938 5.679688 C 0.359375 5.078125 0 4.28125 0 3.398438 C 0 2.558594 0.320312 1.761719 0.960938 1.121094 C 1.558594 0.519531 2.359375 0.199219 3.238281 0.199219 C 4.078125 0.199219 4.878906 0.519531 5.480469 1.160156 C 6.078125 1.761719 6.441406 2.558594 6.398438 3.398438 C 6.398438 4.28125 6.039062 5.078125 5.441406 5.679688 C 4.839844 6.28125 4.078125 6.601562 3.28125 6.601562 Z M 3.199219 5.800781 C 3.839844 5.839844 4.441406 5.558594 4.878906 5.121094 C 5.359375 4.679688 5.601562 4.039062 5.601562 3.398438 C 5.601562 2.761719 5.359375 2.160156 4.878906 1.679688 C 4.441406 1.238281 3.839844 1 3.238281 1 C 2.558594 1 1.960938 1.238281 1.519531 1.679688 C 1.039062 2.160156 0.800781 2.761719 0.800781 3.398438 C 0.800781 4.039062 1.039062 4.679688 1.519531 5.121094 C 1.960938 5.558594 2.601562 5.800781 3.199219 5.800781 Z M 3.199219 5.800781 "/>
<path style=" stroke:none;fill-rule:nonzero;fill:rgb(0%,0%,0%);fill-opacity:1;" d="M 4.800781 23.800781 L 1.601562 23.800781 C 0.960938 23.800781 0.398438 23.238281 0.398438 22.601562 L 0.398438 13 C 0.398438 12.761719 0.558594 12.601562 0.800781 12.601562 C 1.039062 12.601562 1.199219 12.761719 1.199219 13 L 1.199219 22.601562 C 1.199219 22.800781 1.398438 23 1.601562 23 L 4.800781 23 C 5 23 5.199219 22.839844 5.199219 22.640625 L 5.199219 8.601562 C 5.199219 8.398438 5 8.199219 4.800781 8.199219 L 1.558594 8.199219 C 1.359375 8.199219 1.199219 8.398438 1.199219 8.601562 L 1.199219 9.800781 C 1.199219 10.039062 1.039062 10.199219 0.800781 10.199219 C 0.558594 10.199219 0.398438 10.039062 0.398438 9.800781 L 0.398438 8.601562 C 0.398438 7.921875 0.921875 7.398438 1.558594 7.398438 L 4.800781 7.398438 C 5.441406 7.398438 6 7.960938 6 8.601562 L 6 22.640625 C 6 23.238281 5.441406 23.800781 4.800781 23.800781 Z M 4.800781 23.800781 "/>
<path style=" stroke:none;fill-rule:nonzero;fill:rgb(0%,0%,0%);fill-opacity:1;" d="M 1.199219 11.398438 C 1.199219 11.160156 1.039062 11 0.800781 11 C 0.558594 11 0.398438 11.160156 0.398438 11.398438 C 0.398438 11.640625 0.558594 11.800781 0.800781 11.800781 C 1.039062 11.800781 1.199219 11.640625 1.199219 11.398438 "/>
<path style=" stroke:none;fill-rule:nonzero;fill:rgb(0%,0%,0%);fill-opacity:1;" d="M 23.199219 23.800781 L 19.199219 23.800781 C 18.800781 23.800781 18.398438 23.398438 18.398438 23 L 18.398438 14.398438 C 18.398438 13.679688 18.238281 13.121094 17.839844 12.761719 C 17.398438 12.320312 16.800781 12.078125 16.160156 12.078125 C 14.921875 12.078125 13.960938 13.121094 13.960938 14.441406 L 13.960938 23.078125 C 13.960938 23.519531 13.519531 23.800781 13.160156 23.800781 L 8.761719 23.800781 C 8.398438 23.800781 7.960938 23.519531 7.960938 23.078125 L 7.960938 8.160156 C 7.960938 7.71875 8.398438 7.398438 8.761719 7.398438 L 12.761719 7.398438 C 13.160156 7.398438 13.558594 7.800781 13.558594 8.199219 L 13.558594 8.761719 C 14.519531 7.679688 16 7 17.558594 7 L 18.398438 7 C 21.558594 7 24 9.480469 24 12.679688 L 24 23 C 24 23.398438 23.601562 23.800781 23.199219 23.800781 Z M 19.238281 23 L 23.160156 23 L 23.199219 22.960938 L 23.199219 12.679688 C 23.199219 9.960938 21.121094 7.800781 18.441406 7.800781 L 17.601562 7.800781 C 16.121094 7.800781 14.71875 8.519531 13.921875 9.640625 L 13.878906 9.679688 L 12.800781 10.761719 L 12.800781 8.238281 L 12.761719 8.199219 L 8.800781 8.199219 L 8.800781 23 L 13.199219 23 L 13.199219 14.441406 C 13.199219 12.679688 14.519531 11.320312 16.199219 11.28125 C 17.039062 11.28125 17.839844 11.601562 18.441406 12.199219 C 18.960938 12.71875 19.199219 13.441406 19.199219 14.398438 L 19.238281 23 C 19.199219 22.960938 19.238281 23 19.238281 23 Z M 19.238281 23 "/>
</g>
</svg>
