<?xml version="1.0" encoding="UTF-8"?>
<svg xmlns="http://www.w3.org/2000/svg" xmlns:xlink="http://www.w3.org/1999/xlink" width="24px" height="24px" viewBox="0 0 24 24" version="1.1">
<g id="surface1">
<path style=" stroke:none;fill-rule:nonzero;fill:rgb(99.215686%,75.686275%,27.843137%);fill-opacity:1;" d="M 23.511719 4.652344 L 12 11.511719 L 0.488281 4.652344 Z M 23.511719 4.652344 "/>
<path style=" stroke:none;fill-rule:nonzero;fill:rgb(100%,82.352941%,28.235294%);fill-opacity:1;" d="M 23.511719 4.652344 L 23.511719 19.347656 L 0.488281 19.347656 L 0.488281 4.652344 L 12 11.511719 Z M 23.511719 4.652344 "/>
<path style=" stroke:none;fill-rule:nonzero;fill:rgb(13.72549%,12.156863%,12.54902%);fill-opacity:1;" d="M 23.511719 4.164062 L 0.488281 4.164062 C 0.21875 4.164062 0 4.382812 0 4.652344 L 0 19.347656 C 0 19.617188 0.21875 19.835938 0.488281 19.835938 L 23.511719 19.835938 C 23.78125 19.835938 24 19.617188 24 19.347656 L 24 4.652344 C 24 4.382812 23.78125 4.164062 23.511719 4.164062 Z M 12 10.941406 L 2.269531 5.144531 L 21.730469 5.144531 Z M 0.980469 18.855469 L 0.980469 5.515625 L 8.367188 9.914062 L 3.125 14.066406 L 3.734375 14.832031 L 9.265625 10.453125 L 11.75 11.929688 C 11.828125 11.976562 11.914062 12 12 12 C 12.085938 12 12.171875 11.976562 12.25 11.929688 L 14.734375 10.453125 L 20.265625 14.832031 L 20.875 14.066406 L 15.632812 9.914062 L 23.019531 5.515625 L 23.019531 18.855469 Z M 0.980469 18.855469 "/>
</g>
</svg>
